Coordinates
version=1
nRows=24
nColumns=22
inDegrees=yes

Units are S.I. units (second, meters, Newtons, ...)
If the header above contains a line with 'inDegrees', this indicates whether rotational values are in degrees (yes) or radians (no).

endheader
time	pelvis_tilt	pelvis_list	pelvis_rotation	pelvis_tx	pelvis_ty	pelvis_tz	hip_flexion_r	hip_adduction_r	hip_rotation_r	knee_angle_r	ankle_angle_r	subtalar_angle_r	hip_flexion_l	hip_adduction_l	hip_rotation_l	knee_angle_l	ankle_angle_l	subtalar_angle_l	lumbar_extension	lumbar_bending	lumbar_rotation
      2.59000000	     -4.43727022	      1.60672839	    -54.17374942	      0.05025994	      0.87517989	     -0.64971908	     29.30454728	     -0.39259828	    -17.06093617	    -21.76250614	      1.98473552	     -1.07051823	     -3.89507605	     -5.36968754	    -20.39496779	    -13.48205254	     19.81123506	      7.96748533	     -4.36099046	      4.30276219	     -1.06018413
      2.60000000	     -4.47310369	      1.84590803	    -54.70767195	      0.05334448	      0.87362306	     -0.64521284	     29.31027288	     -0.37348743	    -17.53417503	    -19.75848670	      1.19291588	     -0.06979870	     -4.26454166	     -5.15002955	    -20.94594085	    -13.31926472	     20.03498831	      8.15742564	     -4.17567908	      4.28108935	     -0.92875174
      2.61000000	     -4.49614343	      2.06896975	    -55.21509815	      0.05642893	      0.87204390	     -0.64061239	     29.29509613	     -0.34647278	    -17.94615745	    -17.89304323	      0.50359879	      0.87788043	     -4.63140871	     -4.94327817	    -21.45458825	    -13.20660725	     20.30406139	      8.34428931	     -4.01296935	      4.26991870	     -0.81656675
      2.62000000	     -4.52007175	      2.29745760	    -55.68830435	      0.05953698	      0.87042928	     -0.63588869	     29.28503701	     -0.32497623	    -18.32683480	    -16.18660688	     -0.03266337	      1.77726120	     -4.99070718	     -4.74091524	    -21.89280246	    -13.09625438	     20.51890979	      8.55487058	     -3.83677407	      4.26720153	     -0.74060201
      2.63000000	     -4.54319223	      2.51414397	    -56.12719841	      0.06265509	      0.86880601	     -0.63103801	     29.26109315	     -0.30105716	    -18.68606302	    -14.64436895	     -0.42315893	      2.51962199	     -5.34699304	     -4.55940149	    -22.27838057	    -13.01550010	     20.72376445	      8.77541350	     -3.66595591	      4.28042762	     -0.70005967
      2.64000000	     -4.57402425	      2.72200690	    -56.53727160	      0.06577129	      0.86717630	     -0.62604748	     29.23828405	     -0.27052128	    -19.04630566	    -13.28885589	     -0.70155755	      2.96071727	     -5.69096041	     -4.40730243	    -22.63452531	    -12.97130626	     20.91499514	      8.95720106	     -3.49231769	      4.31423957	     -0.69206422
      2.65000000	     -4.59620228	      2.91629511	    -56.88898554	      0.06892219	      0.86557376	     -0.62091935	     29.18227526	     -0.25451704	    -19.41039476	    -12.10535867	     -0.78877374	      3.34192516	     -6.03823379	     -4.27078500	    -22.86193667	    -12.95325055	     21.07589556	      9.24600323	     -3.32817046	      4.35282418	     -0.74461485
      2.66000000	     -4.62753028	      3.13826159	    -57.21290164	      0.07205339	      0.86395168	     -0.61563802	     29.16528184	     -0.24776837	    -19.78092912	    -11.13282396	     -0.83879628	      3.41890793	     -6.33787505	     -4.14348888	    -23.03024223	    -12.97507110	     21.19060796	      9.41945409	     -3.12356443	      4.38526410	     -0.82400761
      2.67000000	     -4.67470946	      3.29884221	    -57.49448764	      0.07522891	      0.86241480	     -0.61011102	     29.09292199	     -0.20355114	    -20.24060949	    -10.37171982	     -0.79066837	      3.38893075	     -6.67649474	     -4.09282438	    -23.18510104	    -13.03462991	     21.30079743	      9.73069578	     -2.94945164	      4.47481078	     -0.96946311
      2.68000000	     -4.71635109	      3.47356657	    -57.76242231	      0.07838687	      0.86089075	     -0.60435508	     29.04203438	     -0.16254306	    -20.68361380	     -9.84650993	     -0.69741904	      3.11826486	     -7.00020305	     -4.04845931	    -23.31541511	    -13.12723899	     21.36743267	     10.16074519	     -2.75105707	      4.54862417	     -1.14103870
      2.69000000	     -4.79181133	      3.64269862	    -57.97343625	      0.08156994	      0.85941695	     -0.59838137	     28.98683404	     -0.09489831	    -21.18914273	     -9.50191473	     -0.64035681	      2.79710120	     -7.28898906	     -4.06374979	    -23.33161316	    -13.27077024	     21.37726687	     10.42433847	     -2.51810772	      4.65451145	     -1.35279328
      2.70000000	     -4.86762046	      3.80533420	    -58.20719037	      0.08466952	      0.85800298	     -0.59211932	     28.91658915	      0.02404851	    -21.55084595	     -9.32070931	     -0.63578572	      2.05267790	     -7.58632268	     -4.10497306	    -23.40247402	    -13.44556356	     21.35454105	     10.89372426	     -2.27852476	      4.76052976	     -1.57379169
      2.71000000	     -4.98009514	      3.95071225	    -58.40011855	      0.08775578	      0.85668390	     -0.58562228	     28.83033101	      0.19505757	    -21.87140631	     -9.27293603	     -0.71012415	      1.17296830	     -7.85666057	     -4.21851141	    -23.39225743	    -13.67836141	     21.28081514	     11.29701832	     -2.01655459	      4.90555969	     -1.82826721
      2.72000000	     -5.12993861	      4.07838134	    -58.57278752	      0.09080377	      0.85548498	     -0.57888050	     28.71994070	      0.43743546	    -22.07916312	     -9.29953236	     -0.88297328	     -0.00060345	     -8.10518801	     -4.40347182	    -23.34398478	    -13.96373641	     21.15306467	     11.72418472	     -1.73405180	      5.09151417	     -2.10160954
      2.73000000	     -5.32000451	      4.17398821	    -58.74191687	      0.09376283	      0.85445955	     -0.57190741	     28.58801075	      0.76877607	    -22.12045093	     -9.38695001	     -1.15761702	     -1.52735351	     -8.33720099	     -4.66948158	    -23.24792642	    -14.31295994	     20.95025367	     12.18164708	     -1.45146260	      5.32796437	     -2.36257831
      2.74000000	     -5.54708217	      4.23233477	    -58.90579271	      0.09665830	      0.85365014	     -0.56471092	     28.43440053	      1.18043083	    -22.02603300	     -9.51500912	     -1.49311118	     -3.34175020	     -8.56266404	     -5.01304036	    -23.12123204	    -14.71392650	     20.66930715	     12.65490937	     -1.17526922	      5.61825844	     -2.63338678
      2.75000000	     -5.81799616	      4.22656232	    -59.05622254	      0.09947286	      0.85311558	     -0.55731546	     28.24807450	      1.67813280	    -21.83188506	     -9.68239609	     -1.82542791	     -5.31656241	     -8.77749444	     -5.46688390	    -22.95178599	    -15.21300460	     20.31990447	     13.13810081	     -0.93368500	      5.97959004	     -2.90425401
      2.76000000	     -6.11464571	      4.16653162	    -59.21422653	      0.10222406	      0.85288505	     -0.54973090	     28.04615324	      2.22903010	    -21.55250176	     -9.92241202	     -2.07943718	     -7.29832423	     -8.99895486	     -5.99150621	    -22.73138018	    -15.77542491	     19.86186421	     13.63529835	     -0.73102125	      6.39638632	     -3.15435583
      2.77000000	     -6.42640440	      4.05218631	    -59.39001181	      0.10490940	      0.85298014	     -0.54197065	     27.82900953	      2.80959030	    -21.21901046	    -10.26039604	     -2.17312488	     -9.08617254	     -9.22681637	     -6.57492818	    -22.45925395	    -16.41095511	     19.28149278	     14.13775224	     -0.57743494	      6.85719520	     -3.36622564
      2.78000000	     -6.75166528	      3.88260181	    -59.58537564	      0.10753244	      0.85341336	     -0.53405021	     27.57629357	      3.41178330	    -20.85525706	    -10.67606466	     -2.06846258	    -10.50652999	     -9.44554609	     -7.22086615	    -22.16164212	    -17.15308292	     18.58787248	     14.62832752	     -0.47651580	      7.36252451	     -3.55770723
      2.79000000	     -7.08086569	      3.66861877	    -59.80908238	      0.11008553	      0.85417541	     -0.52597310	     27.27183532	      4.02282519	    -20.48267912	    -11.14119505	     -1.76712341	    -11.47534495	     -9.64362429	     -7.91320545	    -21.83678818	    -18.01432344	     17.77276272	     15.09506528	     -0.42568024	      7.89401269	     -3.71865163
      2.80000000	     -7.39632971	      3.44824234	    -60.08943077	      0.11254928	      0.85521540	     -0.51774565	     26.93749737	      4.61736061	    -20.09772327	    -11.64978475	     -1.29065164	    -12.03912481	     -9.80387706	     -8.60212314	    -21.48910857	    -18.98008332	     16.80925846	     15.54444605	     -0.40161419	      8.41439420	     -3.81117913
      2.81000000	     -7.68535442	      3.24105136	    -60.42090908	      0.11490210	      0.85649625	     -0.50940121	     26.55416890	      5.18814289	    -19.68743046	    -12.12973398	     -0.71602554	    -12.24334379	     -9.88453344	     -9.27534349	    -21.12772966	    -20.09578165	     15.70338969	     15.94184263	     -0.39271438	      8.89600556	     -3.86685887
      2.82000000	     -7.94849994	      3.08340377	    -60.81847363	      0.11711266	      0.85793327	     -0.50092356	     26.14997753	      5.73497818	    -19.25343096	    -12.55599346	     -0.09148605	    -12.22301643	     -9.85724043	     -9.90649918	    -20.73614844	    -21.34600137	     14.43332508	     16.27606446	     -0.36031507	      9.31384468	     -3.83258958
